<?xml version="1.0" encoding="utf-8" standalone="no"?>
<!DOCTYPE svg PUBLIC "-//W3C//DTD SVG 1.1//EN"
  "http://www.w3.org/Graphics/SVG/1.1/DTD/svg11.dtd">
<svg xmlns:xlink="http://www.w3.org/1999/xlink" width="720pt" height="432pt" viewBox="0 0 720 432" xmlns="http://www.w3.org/2000/svg" version="1.1">
 <metadata>
  <rdf:RDF xmlns:dc="http://purl.org/dc/elements/1.1/" xmlns:cc="http://creativecommons.org/ns#" xmlns:rdf="http://www.w3.org/1999/02/22-rdf-syntax-ns#">
   <cc:Work>
    <dc:type rdf:resource="http://purl.org/dc/dcmitype/StillImage"/>
    <dc:date>2024-04-08T09:00:38.535408</dc:date>
    <dc:format>image/svg+xml</dc:format>
    <dc:creator>
     <cc:Agent>
      <dc:title>Matplotlib v3.7.2, https://matplotlib.org/</dc:title>
     </cc:Agent>
    </dc:creator>
   </cc:Work>
  </rdf:RDF>
 </metadata>
 <defs>
  <style type="text/css">*{stroke-linejoin: round; stroke-linecap: butt}</style>
 </defs>
 <g id="figure_1">
  <g id="patch_1">
   <path d="M 0 432 
L 720 432 
L 720 0 
L 0 0 
z
" style="fill: #ffffff"/>
  </g>
  <g id="axes_1">
   <g id="patch_2">
    <path d="M 90 384.48 
L 648 384.48 
L 648 51.84 
L 90 51.84 
z
" style="fill: #ffffff"/>
   </g>
   <g id="matplotlib.axis_1">
    <g id="xtick_1">
     <g id="line2d_1">
      <defs>
       <path id="ma9a20630ac" d="M 0 0 
L 0 3.5 
" style="stroke: #000000; stroke-width: 0.8"/>
      </defs>
      <g>
       <use xlink:href="#ma9a20630ac" x="115.363636" y="384.48" style="stroke: #000000; stroke-width: 0.8"/>
      </g>
     </g>
     <g id="text_1">
      <!-- 0 -->
      <g transform="translate(112.182386 399.078438) scale(0.1 -0.1)">
       <defs>
        <path id="DejaVuSans-30" d="M 2034 4250 
Q 1547 4250 1301 3770 
Q 1056 3291 1056 2328 
Q 1056 1369 1301 889 
Q 1547 409 2034 409 
Q 2525 409 2770 889 
Q 3016 1369 3016 2328 
Q 3016 3291 2770 3770 
Q 2525 4250 2034 4250 
z
M 2034 4750 
Q 2819 4750 3233 4129 
Q 3647 3509 3647 2328 
Q 3647 1150 3233 529 
Q 2819 -91 2034 -91 
Q 1250 -91 836 529 
Q 422 1150 422 2328 
Q 422 3509 836 4129 
Q 1250 4750 2034 4750 
z
" transform="scale(0.015625)"/>
       </defs>
       <use xlink:href="#DejaVuSans-30"/>
      </g>
     </g>
    </g>
    <g id="xtick_2">
     <g id="line2d_2">
      <g>
       <use xlink:href="#ma9a20630ac" x="217.842975" y="384.48" style="stroke: #000000; stroke-width: 0.8"/>
      </g>
     </g>
     <g id="text_2">
      <!-- 20 -->
      <g transform="translate(211.480475 399.078438) scale(0.1 -0.1)">
       <defs>
        <path id="DejaVuSans-32" d="M 1228 531 
L 3431 531 
L 3431 0 
L 469 0 
L 469 531 
Q 828 903 1448 1529 
Q 2069 2156 2228 2338 
Q 2531 2678 2651 2914 
Q 2772 3150 2772 3378 
Q 2772 3750 2511 3984 
Q 2250 4219 1831 4219 
Q 1534 4219 1204 4116 
Q 875 4013 500 3803 
L 500 4441 
Q 881 4594 1212 4672 
Q 1544 4750 1819 4750 
Q 2544 4750 2975 4387 
Q 3406 4025 3406 3419 
Q 3406 3131 3298 2873 
Q 3191 2616 2906 2266 
Q 2828 2175 2409 1742 
Q 1991 1309 1228 531 
z
" transform="scale(0.015625)"/>
       </defs>
       <use xlink:href="#DejaVuSans-32"/>
       <use xlink:href="#DejaVuSans-30" x="63.623047"/>
      </g>
     </g>
    </g>
    <g id="xtick_3">
     <g id="line2d_3">
      <g>
       <use xlink:href="#ma9a20630ac" x="320.322314" y="384.48" style="stroke: #000000; stroke-width: 0.8"/>
      </g>
     </g>
     <g id="text_3">
      <!-- 40 -->
      <g transform="translate(313.959814 399.078438) scale(0.1 -0.1)">
       <defs>
        <path id="DejaVuSans-34" d="M 2419 4116 
L 825 1625 
L 2419 1625 
L 2419 4116 
z
M 2253 4666 
L 3047 4666 
L 3047 1625 
L 3713 1625 
L 3713 1100 
L 3047 1100 
L 3047 0 
L 2419 0 
L 2419 1100 
L 313 1100 
L 313 1709 
L 2253 4666 
z
" transform="scale(0.015625)"/>
       </defs>
       <use xlink:href="#DejaVuSans-34"/>
       <use xlink:href="#DejaVuSans-30" x="63.623047"/>
      </g>
     </g>
    </g>
    <g id="xtick_4">
     <g id="line2d_4">
      <g>
       <use xlink:href="#ma9a20630ac" x="422.801653" y="384.48" style="stroke: #000000; stroke-width: 0.8"/>
      </g>
     </g>
     <g id="text_4">
      <!-- 60 -->
      <g transform="translate(416.439153 399.078438) scale(0.1 -0.1)">
       <defs>
        <path id="DejaVuSans-36" d="M 2113 2584 
Q 1688 2584 1439 2293 
Q 1191 2003 1191 1497 
Q 1191 994 1439 701 
Q 1688 409 2113 409 
Q 2538 409 2786 701 
Q 3034 994 3034 1497 
Q 3034 2003 2786 2293 
Q 2538 2584 2113 2584 
z
M 3366 4563 
L 3366 3988 
Q 3128 4100 2886 4159 
Q 2644 4219 2406 4219 
Q 1781 4219 1451 3797 
Q 1122 3375 1075 2522 
Q 1259 2794 1537 2939 
Q 1816 3084 2150 3084 
Q 2853 3084 3261 2657 
Q 3669 2231 3669 1497 
Q 3669 778 3244 343 
Q 2819 -91 2113 -91 
Q 1303 -91 875 529 
Q 447 1150 447 2328 
Q 447 3434 972 4092 
Q 1497 4750 2381 4750 
Q 2619 4750 2861 4703 
Q 3103 4656 3366 4563 
z
" transform="scale(0.015625)"/>
       </defs>
       <use xlink:href="#DejaVuSans-36"/>
       <use xlink:href="#DejaVuSans-30" x="63.623047"/>
      </g>
     </g>
    </g>
    <g id="xtick_5">
     <g id="line2d_5">
      <g>
       <use xlink:href="#ma9a20630ac" x="525.280992" y="384.48" style="stroke: #000000; stroke-width: 0.8"/>
      </g>
     </g>
     <g id="text_5">
      <!-- 80 -->
      <g transform="translate(518.918492 399.078438) scale(0.1 -0.1)">
       <defs>
        <path id="DejaVuSans-38" d="M 2034 2216 
Q 1584 2216 1326 1975 
Q 1069 1734 1069 1313 
Q 1069 891 1326 650 
Q 1584 409 2034 409 
Q 2484 409 2743 651 
Q 3003 894 3003 1313 
Q 3003 1734 2745 1975 
Q 2488 2216 2034 2216 
z
M 1403 2484 
Q 997 2584 770 2862 
Q 544 3141 544 3541 
Q 544 4100 942 4425 
Q 1341 4750 2034 4750 
Q 2731 4750 3128 4425 
Q 3525 4100 3525 3541 
Q 3525 3141 3298 2862 
Q 3072 2584 2669 2484 
Q 3125 2378 3379 2068 
Q 3634 1759 3634 1313 
Q 3634 634 3220 271 
Q 2806 -91 2034 -91 
Q 1263 -91 848 271 
Q 434 634 434 1313 
Q 434 1759 690 2068 
Q 947 2378 1403 2484 
z
M 1172 3481 
Q 1172 3119 1398 2916 
Q 1625 2713 2034 2713 
Q 2441 2713 2670 2916 
Q 2900 3119 2900 3481 
Q 2900 3844 2670 4047 
Q 2441 4250 2034 4250 
Q 1625 4250 1398 4047 
Q 1172 3844 1172 3481 
z
" transform="scale(0.015625)"/>
       </defs>
       <use xlink:href="#DejaVuSans-38"/>
       <use xlink:href="#DejaVuSans-30" x="63.623047"/>
      </g>
     </g>
    </g>
    <g id="xtick_6">
     <g id="line2d_6">
      <g>
       <use xlink:href="#ma9a20630ac" x="627.760331" y="384.48" style="stroke: #000000; stroke-width: 0.8"/>
      </g>
     </g>
     <g id="text_6">
      <!-- 100 -->
      <g transform="translate(618.216581 399.078438) scale(0.1 -0.1)">
       <defs>
        <path id="DejaVuSans-31" d="M 794 531 
L 1825 531 
L 1825 4091 
L 703 3866 
L 703 4441 
L 1819 4666 
L 2450 4666 
L 2450 531 
L 3481 531 
L 3481 0 
L 794 0 
L 794 531 
z
" transform="scale(0.015625)"/>
       </defs>
       <use xlink:href="#DejaVuSans-31"/>
       <use xlink:href="#DejaVuSans-30" x="63.623047"/>
       <use xlink:href="#DejaVuSans-30" x="127.246094"/>
      </g>
     </g>
    </g>
    <g id="text_7">
     <!-- Trials -->
     <g transform="translate(356.18125 412.756563) scale(0.1 -0.1)">
      <defs>
       <path id="DejaVuSans-54" d="M -19 4666 
L 3928 4666 
L 3928 4134 
L 2272 4134 
L 2272 0 
L 1638 0 
L 1638 4134 
L -19 4134 
L -19 4666 
z
" transform="scale(0.015625)"/>
       <path id="DejaVuSans-72" d="M 2631 2963 
Q 2534 3019 2420 3045 
Q 2306 3072 2169 3072 
Q 1681 3072 1420 2755 
Q 1159 2438 1159 1844 
L 1159 0 
L 581 0 
L 581 3500 
L 1159 3500 
L 1159 2956 
Q 1341 3275 1631 3429 
Q 1922 3584 2338 3584 
Q 2397 3584 2469 3576 
Q 2541 3569 2628 3553 
L 2631 2963 
z
" transform="scale(0.015625)"/>
       <path id="DejaVuSans-69" d="M 603 3500 
L 1178 3500 
L 1178 0 
L 603 0 
L 603 3500 
z
M 603 4863 
L 1178 4863 
L 1178 4134 
L 603 4134 
L 603 4863 
z
" transform="scale(0.015625)"/>
       <path id="DejaVuSans-61" d="M 2194 1759 
Q 1497 1759 1228 1600 
Q 959 1441 959 1056 
Q 959 750 1161 570 
Q 1363 391 1709 391 
Q 2188 391 2477 730 
Q 2766 1069 2766 1631 
L 2766 1759 
L 2194 1759 
z
M 3341 1997 
L 3341 0 
L 2766 0 
L 2766 531 
Q 2569 213 2275 61 
Q 1981 -91 1556 -91 
Q 1019 -91 701 211 
Q 384 513 384 1019 
Q 384 1609 779 1909 
Q 1175 2209 1959 2209 
L 2766 2209 
L 2766 2266 
Q 2766 2663 2505 2880 
Q 2244 3097 1772 3097 
Q 1472 3097 1187 3025 
Q 903 2953 641 2809 
L 641 3341 
Q 956 3463 1253 3523 
Q 1550 3584 1831 3584 
Q 2591 3584 2966 3190 
Q 3341 2797 3341 1997 
z
" transform="scale(0.015625)"/>
       <path id="DejaVuSans-6c" d="M 603 4863 
L 1178 4863 
L 1178 0 
L 603 0 
L 603 4863 
z
" transform="scale(0.015625)"/>
       <path id="DejaVuSans-73" d="M 2834 3397 
L 2834 2853 
Q 2591 2978 2328 3040 
Q 2066 3103 1784 3103 
Q 1356 3103 1142 2972 
Q 928 2841 928 2578 
Q 928 2378 1081 2264 
Q 1234 2150 1697 2047 
L 1894 2003 
Q 2506 1872 2764 1633 
Q 3022 1394 3022 966 
Q 3022 478 2636 193 
Q 2250 -91 1575 -91 
Q 1294 -91 989 -36 
Q 684 19 347 128 
L 347 722 
Q 666 556 975 473 
Q 1284 391 1588 391 
Q 1994 391 2212 530 
Q 2431 669 2431 922 
Q 2431 1156 2273 1281 
Q 2116 1406 1581 1522 
L 1381 1569 
Q 847 1681 609 1914 
Q 372 2147 372 2553 
Q 372 3047 722 3315 
Q 1072 3584 1716 3584 
Q 2034 3584 2315 3537 
Q 2597 3491 2834 3397 
z
" transform="scale(0.015625)"/>
      </defs>
      <use xlink:href="#DejaVuSans-54"/>
      <use xlink:href="#DejaVuSans-72" x="46.333984"/>
      <use xlink:href="#DejaVuSans-69" x="87.447266"/>
      <use xlink:href="#DejaVuSans-61" x="115.230469"/>
      <use xlink:href="#DejaVuSans-6c" x="176.509766"/>
      <use xlink:href="#DejaVuSans-73" x="204.292969"/>
     </g>
    </g>
   </g>
   <g id="matplotlib.axis_2">
    <g id="ytick_1">
     <g id="line2d_7">
      <defs>
       <path id="m87cb67dbab" d="M 0 0 
L -3.5 0 
" style="stroke: #000000; stroke-width: 0.8"/>
      </defs>
      <g>
       <use xlink:href="#m87cb67dbab" x="90" y="369.36" style="stroke: #000000; stroke-width: 0.8"/>
      </g>
     </g>
     <g id="text_8">
      <!-- 0 -->
      <g transform="translate(76.6375 373.159219) scale(0.1 -0.1)">
       <use xlink:href="#DejaVuSans-30"/>
      </g>
     </g>
    </g>
    <g id="ytick_2">
     <g id="line2d_8">
      <g>
       <use xlink:href="#m87cb67dbab" x="90" y="307.047273" style="stroke: #000000; stroke-width: 0.8"/>
      </g>
     </g>
     <g id="text_9">
      <!-- 1 -->
      <g transform="translate(76.6375 310.846491) scale(0.1 -0.1)">
       <use xlink:href="#DejaVuSans-31"/>
      </g>
     </g>
    </g>
    <g id="ytick_3">
     <g id="line2d_9">
      <g>
       <use xlink:href="#m87cb67dbab" x="90" y="244.734545" style="stroke: #000000; stroke-width: 0.8"/>
      </g>
     </g>
     <g id="text_10">
      <!-- 2 -->
      <g transform="translate(76.6375 248.533764) scale(0.1 -0.1)">
       <use xlink:href="#DejaVuSans-32"/>
      </g>
     </g>
    </g>
    <g id="ytick_4">
     <g id="line2d_10">
      <g>
       <use xlink:href="#m87cb67dbab" x="90" y="182.421818" style="stroke: #000000; stroke-width: 0.8"/>
      </g>
     </g>
     <g id="text_11">
      <!-- 3 -->
      <g transform="translate(76.6375 186.221037) scale(0.1 -0.1)">
       <defs>
        <path id="DejaVuSans-33" d="M 2597 2516 
Q 3050 2419 3304 2112 
Q 3559 1806 3559 1356 
Q 3559 666 3084 287 
Q 2609 -91 1734 -91 
Q 1441 -91 1130 -33 
Q 819 25 488 141 
L 488 750 
Q 750 597 1062 519 
Q 1375 441 1716 441 
Q 2309 441 2620 675 
Q 2931 909 2931 1356 
Q 2931 1769 2642 2001 
Q 2353 2234 1838 2234 
L 1294 2234 
L 1294 2753 
L 1863 2753 
Q 2328 2753 2575 2939 
Q 2822 3125 2822 3475 
Q 2822 3834 2567 4026 
Q 2313 4219 1838 4219 
Q 1578 4219 1281 4162 
Q 984 4106 628 3988 
L 628 4550 
Q 988 4650 1302 4700 
Q 1616 4750 1894 4750 
Q 2613 4750 3031 4423 
Q 3450 4097 3450 3541 
Q 3450 3153 3228 2886 
Q 3006 2619 2597 2516 
z
" transform="scale(0.015625)"/>
       </defs>
       <use xlink:href="#DejaVuSans-33"/>
      </g>
     </g>
    </g>
    <g id="ytick_5">
     <g id="line2d_11">
      <g>
       <use xlink:href="#m87cb67dbab" x="90" y="120.109091" style="stroke: #000000; stroke-width: 0.8"/>
      </g>
     </g>
     <g id="text_12">
      <!-- 4 -->
      <g transform="translate(76.6375 123.90831) scale(0.1 -0.1)">
       <use xlink:href="#DejaVuSans-34"/>
      </g>
     </g>
    </g>
    <g id="ytick_6">
     <g id="line2d_12">
      <g>
       <use xlink:href="#m87cb67dbab" x="90" y="57.796364" style="stroke: #000000; stroke-width: 0.8"/>
      </g>
     </g>
     <g id="text_13">
      <!-- 5 -->
      <g transform="translate(76.6375 61.595582) scale(0.1 -0.1)">
       <defs>
        <path id="DejaVuSans-35" d="M 691 4666 
L 3169 4666 
L 3169 4134 
L 1269 4134 
L 1269 2991 
Q 1406 3038 1543 3061 
Q 1681 3084 1819 3084 
Q 2600 3084 3056 2656 
Q 3513 2228 3513 1497 
Q 3513 744 3044 326 
Q 2575 -91 1722 -91 
Q 1428 -91 1123 -41 
Q 819 9 494 109 
L 494 744 
Q 775 591 1075 516 
Q 1375 441 1709 441 
Q 2250 441 2565 725 
Q 2881 1009 2881 1497 
Q 2881 1984 2565 2268 
Q 2250 2553 1709 2553 
Q 1456 2553 1204 2497 
Q 953 2441 691 2322 
L 691 4666 
z
" transform="scale(0.015625)"/>
       </defs>
       <use xlink:href="#DejaVuSans-35"/>
      </g>
     </g>
    </g>
    <g id="text_14">
     <!-- Bias -->
     <g transform="translate(70.557812 228.648281) rotate(-90) scale(0.1 -0.1)">
      <defs>
       <path id="DejaVuSans-42" d="M 1259 2228 
L 1259 519 
L 2272 519 
Q 2781 519 3026 730 
Q 3272 941 3272 1375 
Q 3272 1813 3026 2020 
Q 2781 2228 2272 2228 
L 1259 2228 
z
M 1259 4147 
L 1259 2741 
L 2194 2741 
Q 2656 2741 2882 2914 
Q 3109 3088 3109 3444 
Q 3109 3797 2882 3972 
Q 2656 4147 2194 4147 
L 1259 4147 
z
M 628 4666 
L 2241 4666 
Q 2963 4666 3353 4366 
Q 3744 4066 3744 3513 
Q 3744 3084 3544 2831 
Q 3344 2578 2956 2516 
Q 3422 2416 3680 2098 
Q 3938 1781 3938 1306 
Q 3938 681 3513 340 
Q 3088 0 2303 0 
L 628 0 
L 628 4666 
z
" transform="scale(0.015625)"/>
      </defs>
      <use xlink:href="#DejaVuSans-42"/>
      <use xlink:href="#DejaVuSans-69" x="68.603516"/>
      <use xlink:href="#DejaVuSans-61" x="96.386719"/>
      <use xlink:href="#DejaVuSans-73" x="157.666016"/>
     </g>
    </g>
   </g>
   <g id="line2d_13">
    <defs>
     <path id="m8b4c09643e" d="M 0 1.5 
C 0.397805 1.5 0.77937 1.341951 1.06066 1.06066 
C 1.341951 0.77937 1.5 0.397805 1.5 0 
C 1.5 -0.397805 1.341951 -0.77937 1.06066 -1.06066 
C 0.77937 -1.341951 0.397805 -1.5 0 -1.5 
C -0.397805 -1.5 -0.77937 -1.341951 -1.06066 -1.06066 
C -1.341951 -0.77937 -1.5 -0.397805 -1.5 0 
C -1.5 0.397805 -1.341951 0.77937 -1.06066 1.06066 
C -0.77937 1.341951 -0.397805 1.5 0 1.5 
z
" style="stroke: #008000"/>
    </defs>
    <g clip-path="url(#p3c53ca159d)">
     <use xlink:href="#m8b4c09643e" x="115.363636" y="369.36" style="fill: #008000; stroke: #008000"/>
     <use xlink:href="#m8b4c09643e" x="120.487603" y="291.469091" style="fill: #008000; stroke: #008000"/>
     <use xlink:href="#m8b4c09643e" x="125.61157" y="244.734545" style="fill: #008000; stroke: #008000"/>
     <use xlink:href="#m8b4c09643e" x="130.735537" y="213.578182" style="fill: #008000; stroke: #008000"/>
     <use xlink:href="#m8b4c09643e" x="135.859504" y="191.323636" style="fill: #008000; stroke: #008000"/>
     <use xlink:href="#m8b4c09643e" x="140.983471" y="174.632727" style="fill: #008000; stroke: #008000"/>
     <use xlink:href="#m8b4c09643e" x="146.107438" y="161.650909" style="fill: #008000; stroke: #008000"/>
     <use xlink:href="#m8b4c09643e" x="151.231405" y="151.265455" style="fill: #008000; stroke: #008000"/>
     <use xlink:href="#m8b4c09643e" x="156.355372" y="142.768264" style="fill: #008000; stroke: #008000"/>
     <use xlink:href="#m8b4c09643e" x="161.479339" y="135.687273" style="fill: #008000; stroke: #008000"/>
     <use xlink:href="#m8b4c09643e" x="166.603306" y="129.695664" style="fill: #008000; stroke: #008000"/>
     <use xlink:href="#m8b4c09643e" x="171.727273" y="124.56" style="fill: #008000; stroke: #008000"/>
     <use xlink:href="#m8b4c09643e" x="176.85124" y="120.109091" style="fill: #008000; stroke: #008000"/>
     <use xlink:href="#m8b4c09643e" x="181.975207" y="116.214545" style="fill: #008000; stroke: #008000"/>
     <use xlink:href="#m8b4c09643e" x="187.099174" y="112.778182" style="fill: #008000; stroke: #008000"/>
     <use xlink:href="#m8b4c09643e" x="192.22314" y="109.723636" style="fill: #008000; stroke: #008000"/>
     <use xlink:href="#m8b4c09643e" x="197.347107" y="106.990622" style="fill: #008000; stroke: #008000"/>
     <use xlink:href="#m8b4c09643e" x="202.471074" y="104.530909" style="fill: #008000; stroke: #008000"/>
     <use xlink:href="#m8b4c09643e" x="207.595041" y="102.305455" style="fill: #008000; stroke: #008000"/>
     <use xlink:href="#m8b4c09643e" x="212.719008" y="100.282314" style="fill: #008000; stroke: #008000"/>
     <use xlink:href="#m8b4c09643e" x="217.842975" y="98.435099" style="fill: #008000; stroke: #008000"/>
     <use xlink:href="#m8b4c09643e" x="222.966942" y="96.741818" style="fill: #008000; stroke: #008000"/>
     <use xlink:href="#m8b4c09643e" x="228.090909" y="95.184" style="fill: #008000; stroke: #008000"/>
     <use xlink:href="#m8b4c09643e" x="233.214876" y="93.746014" style="fill: #008000; stroke: #008000"/>
     <use xlink:href="#m8b4c09643e" x="238.338843" y="92.414545" style="fill: #008000; stroke: #008000"/>
     <use xlink:href="#m8b4c09643e" x="243.46281" y="91.178182" style="fill: #008000; stroke: #008000"/>
     <use xlink:href="#m8b4c09643e" x="248.586777" y="90.027085" style="fill: #008000; stroke: #008000"/>
     <use xlink:href="#m8b4c09643e" x="253.710744" y="88.952727" style="fill: #008000; stroke: #008000"/>
     <use xlink:href="#m8b4c09643e" x="258.834711" y="87.947683" style="fill: #008000; stroke: #008000"/>
     <use xlink:href="#m8b4c09643e" x="263.958678" y="87.005455" style="fill: #008000; stroke: #008000"/>
     <use xlink:href="#m8b4c09643e" x="269.082645" y="86.120331" style="fill: #008000; stroke: #008000"/>
     <use xlink:href="#m8b4c09643e" x="274.206612" y="85.287273" style="fill: #008000; stroke: #008000"/>
     <use xlink:href="#m8b4c09643e" x="279.330579" y="84.501818" style="fill: #008000; stroke: #008000"/>
     <use xlink:href="#m8b4c09643e" x="284.454545" y="83.76" style="fill: #008000; stroke: #008000"/>
     <use xlink:href="#m8b4c09643e" x="289.578512" y="83.05828" style="fill: #008000; stroke: #008000"/>
     <use xlink:href="#m8b4c09643e" x="294.702479" y="82.393493" style="fill: #008000; stroke: #008000"/>
     <use xlink:href="#m8b4c09643e" x="299.826446" y="81.762797" style="fill: #008000; stroke: #008000"/>
     <use xlink:href="#m8b4c09643e" x="304.950413" y="81.163636" style="fill: #008000; stroke: #008000"/>
     <use xlink:href="#m8b4c09643e" x="310.07438" y="80.593703" style="fill: #008000; stroke: #008000"/>
     <use xlink:href="#m8b4c09643e" x="315.198347" y="80.050909" style="fill: #008000; stroke: #008000"/>
     <use xlink:href="#m8b4c09643e" x="320.322314" y="79.533362" style="fill: #008000; stroke: #008000"/>
     <use xlink:href="#m8b4c09643e" x="325.446281" y="79.039339" style="fill: #008000; stroke: #008000"/>
     <use xlink:href="#m8b4c09643e" x="330.570248" y="78.567273" style="fill: #008000; stroke: #008000"/>
     <use xlink:href="#m8b4c09643e" x="335.694215" y="78.115731" style="fill: #008000; stroke: #008000"/>
     <use xlink:href="#m8b4c09643e" x="340.818182" y="77.683404" style="fill: #008000; stroke: #008000"/>
     <use xlink:href="#m8b4c09643e" x="345.942149" y="77.269091" style="fill: #008000; stroke: #008000"/>
     <use xlink:href="#m8b4c09643e" x="351.066116" y="76.871688" style="fill: #008000; stroke: #008000"/>
     <use xlink:href="#m8b4c09643e" x="356.190083" y="76.490182" style="fill: #008000; stroke: #008000"/>
     <use xlink:href="#m8b4c09643e" x="361.31405" y="76.123636" style="fill: #008000; stroke: #008000"/>
     <use xlink:href="#m8b4c09643e" x="366.438017" y="75.771189" style="fill: #008000; stroke: #008000"/>
     <use xlink:href="#m8b4c09643e" x="371.561983" y="75.432041" style="fill: #008000; stroke: #008000"/>
     <use xlink:href="#m8b4c09643e" x="376.68595" y="75.105455" style="fill: #008000; stroke: #008000"/>
     <use xlink:href="#m8b4c09643e" x="381.809917" y="74.790744" style="fill: #008000; stroke: #008000"/>
     <use xlink:href="#m8b4c09643e" x="386.933884" y="74.487273" style="fill: #008000; stroke: #008000"/>
     <use xlink:href="#m8b4c09643e" x="392.057851" y="74.19445" style="fill: #008000; stroke: #008000"/>
     <use xlink:href="#m8b4c09643e" x="397.181818" y="73.911724" style="fill: #008000; stroke: #008000"/>
     <use xlink:href="#m8b4c09643e" x="402.305785" y="73.638582" style="fill: #008000; stroke: #008000"/>
     <use xlink:href="#m8b4c09643e" x="407.429752" y="73.374545" style="fill: #008000; stroke: #008000"/>
     <use xlink:href="#m8b4c09643e" x="412.553719" y="73.119165" style="fill: #008000; stroke: #008000"/>
     <use xlink:href="#m8b4c09643e" x="417.677686" y="72.872023" style="fill: #008000; stroke: #008000"/>
     <use xlink:href="#m8b4c09643e" x="422.801653" y="72.632727" style="fill: #008000; stroke: #008000"/>
     <use xlink:href="#m8b4c09643e" x="427.92562" y="72.400909" style="fill: #008000; stroke: #008000"/>
     <use xlink:href="#m8b4c09643e" x="433.049587" y="72.176224" style="fill: #008000; stroke: #008000"/>
     <use xlink:href="#m8b4c09643e" x="438.173554" y="71.958347" style="fill: #008000; stroke: #008000"/>
     <use xlink:href="#m8b4c09643e" x="443.297521" y="71.746974" style="fill: #008000; stroke: #008000"/>
     <use xlink:href="#m8b4c09643e" x="448.421488" y="71.541818" style="fill: #008000; stroke: #008000"/>
     <use xlink:href="#m8b4c09643e" x="453.545455" y="71.342609" style="fill: #008000; stroke: #008000"/>
     <use xlink:href="#m8b4c09643e" x="458.669421" y="71.149091" style="fill: #008000; stroke: #008000"/>
     <use xlink:href="#m8b4c09643e" x="463.793388" y="70.961024" style="fill: #008000; stroke: #008000"/>
     <use xlink:href="#m8b4c09643e" x="468.917355" y="70.778182" style="fill: #008000; stroke: #008000"/>
     <use xlink:href="#m8b4c09643e" x="474.041322" y="70.600349" style="fill: #008000; stroke: #008000"/>
     <use xlink:href="#m8b4c09643e" x="479.165289" y="70.427322" style="fill: #008000; stroke: #008000"/>
     <use xlink:href="#m8b4c09643e" x="484.289256" y="70.258909" style="fill: #008000; stroke: #008000"/>
     <use xlink:href="#m8b4c09643e" x="489.413223" y="70.094928" style="fill: #008000; stroke: #008000"/>
     <use xlink:href="#m8b4c09643e" x="494.53719" y="69.935207" style="fill: #008000; stroke: #008000"/>
     <use xlink:href="#m8b4c09643e" x="499.661157" y="69.77958" style="fill: #008000; stroke: #008000"/>
     <use xlink:href="#m8b4c09643e" x="504.785124" y="69.627894" style="fill: #008000; stroke: #008000"/>
     <use xlink:href="#m8b4c09643e" x="509.909091" y="69.48" style="fill: #008000; stroke: #008000"/>
     <use xlink:href="#m8b4c09643e" x="515.033058" y="69.335758" style="fill: #008000; stroke: #008000"/>
     <use xlink:href="#m8b4c09643e" x="520.157025" y="69.195033" style="fill: #008000; stroke: #008000"/>
     <use xlink:href="#m8b4c09643e" x="525.280992" y="69.0577" style="fill: #008000; stroke: #008000"/>
     <use xlink:href="#m8b4c09643e" x="530.404959" y="68.923636" style="fill: #008000; stroke: #008000"/>
     <use xlink:href="#m8b4c09643e" x="535.528926" y="68.792727" style="fill: #008000; stroke: #008000"/>
     <use xlink:href="#m8b4c09643e" x="540.652893" y="68.664863" style="fill: #008000; stroke: #008000"/>
     <use xlink:href="#m8b4c09643e" x="545.77686" y="68.539937" style="fill: #008000; stroke: #008000"/>
     <use xlink:href="#m8b4c09643e" x="550.900826" y="68.417851" style="fill: #008000; stroke: #008000"/>
     <use xlink:href="#m8b4c09643e" x="556.024793" y="68.298509" style="fill: #008000; stroke: #008000"/>
     <use xlink:href="#m8b4c09643e" x="561.14876" y="68.181818" style="fill: #008000; stroke: #008000"/>
     <use xlink:href="#m8b4c09643e" x="566.272727" y="68.067692" style="fill: #008000; stroke: #008000"/>
     <use xlink:href="#m8b4c09643e" x="571.396694" y="67.956047" style="fill: #008000; stroke: #008000"/>
     <use xlink:href="#m8b4c09643e" x="576.520661" y="67.846804" style="fill: #008000; stroke: #008000"/>
     <use xlink:href="#m8b4c09643e" x="581.644628" y="67.739884" style="fill: #008000; stroke: #008000"/>
     <use xlink:href="#m8b4c09643e" x="586.768595" y="67.635215" style="fill: #008000; stroke: #008000"/>
     <use xlink:href="#m8b4c09643e" x="591.892562" y="67.532727" style="fill: #008000; stroke: #008000"/>
     <use xlink:href="#m8b4c09643e" x="597.016529" y="67.432352" style="fill: #008000; stroke: #008000"/>
     <use xlink:href="#m8b4c09643e" x="602.140496" y="67.334026" style="fill: #008000; stroke: #008000"/>
     <use xlink:href="#m8b4c09643e" x="607.264463" y="67.237686" style="fill: #008000; stroke: #008000"/>
     <use xlink:href="#m8b4c09643e" x="612.38843" y="67.143273" style="fill: #008000; stroke: #008000"/>
     <use xlink:href="#m8b4c09643e" x="617.512397" y="67.050729" style="fill: #008000; stroke: #008000"/>
     <use xlink:href="#m8b4c09643e" x="622.636364" y="66.96" style="fill: #008000; stroke: #008000"/>
    </g>
   </g>
   <g id="line2d_14">
    <path d="M 90 57.796364 
L 648 57.796364 
" clip-path="url(#p3c53ca159d)" style="fill: none; stroke-dasharray: 5.55,2.4; stroke-dashoffset: 0; stroke: #0000ff; stroke-width: 1.5"/>
   </g>
   <g id="patch_3">
    <path d="M 90 384.48 
L 90 51.84 
" style="fill: none; stroke: #000000; stroke-width: 0.8; stroke-linejoin: miter; stroke-linecap: square"/>
   </g>
   <g id="patch_4">
    <path d="M 90 384.48 
L 648 384.48 
" style="fill: none; stroke: #000000; stroke-width: 0.8; stroke-linejoin: miter; stroke-linecap: square"/>
   </g>
   <g id="text_15">
    <!-- Bias over time -->
    <g transform="translate(325.664062 45.84) scale(0.12 -0.12)">
     <defs>
      <path id="DejaVuSans-20" transform="scale(0.015625)"/>
      <path id="DejaVuSans-6f" d="M 1959 3097 
Q 1497 3097 1228 2736 
Q 959 2375 959 1747 
Q 959 1119 1226 758 
Q 1494 397 1959 397 
Q 2419 397 2687 759 
Q 2956 1122 2956 1747 
Q 2956 2369 2687 2733 
Q 2419 3097 1959 3097 
z
M 1959 3584 
Q 2709 3584 3137 3096 
Q 3566 2609 3566 1747 
Q 3566 888 3137 398 
Q 2709 -91 1959 -91 
Q 1206 -91 779 398 
Q 353 888 353 1747 
Q 353 2609 779 3096 
Q 1206 3584 1959 3584 
z
" transform="scale(0.015625)"/>
      <path id="DejaVuSans-76" d="M 191 3500 
L 800 3500 
L 1894 563 
L 2988 3500 
L 3597 3500 
L 2284 0 
L 1503 0 
L 191 3500 
z
" transform="scale(0.015625)"/>
      <path id="DejaVuSans-65" d="M 3597 1894 
L 3597 1613 
L 953 1613 
Q 991 1019 1311 708 
Q 1631 397 2203 397 
Q 2534 397 2845 478 
Q 3156 559 3463 722 
L 3463 178 
Q 3153 47 2828 -22 
Q 2503 -91 2169 -91 
Q 1331 -91 842 396 
Q 353 884 353 1716 
Q 353 2575 817 3079 
Q 1281 3584 2069 3584 
Q 2775 3584 3186 3129 
Q 3597 2675 3597 1894 
z
M 3022 2063 
Q 3016 2534 2758 2815 
Q 2500 3097 2075 3097 
Q 1594 3097 1305 2825 
Q 1016 2553 972 2059 
L 3022 2063 
z
" transform="scale(0.015625)"/>
      <path id="DejaVuSans-74" d="M 1172 4494 
L 1172 3500 
L 2356 3500 
L 2356 3053 
L 1172 3053 
L 1172 1153 
Q 1172 725 1289 603 
Q 1406 481 1766 481 
L 2356 481 
L 2356 0 
L 1766 0 
Q 1100 0 847 248 
Q 594 497 594 1153 
L 594 3053 
L 172 3053 
L 172 3500 
L 594 3500 
L 594 4494 
L 1172 4494 
z
" transform="scale(0.015625)"/>
      <path id="DejaVuSans-6d" d="M 3328 2828 
Q 3544 3216 3844 3400 
Q 4144 3584 4550 3584 
Q 5097 3584 5394 3201 
Q 5691 2819 5691 2113 
L 5691 0 
L 5113 0 
L 5113 2094 
Q 5113 2597 4934 2840 
Q 4756 3084 4391 3084 
Q 3944 3084 3684 2787 
Q 3425 2491 3425 1978 
L 3425 0 
L 2847 0 
L 2847 2094 
Q 2847 2600 2669 2842 
Q 2491 3084 2119 3084 
Q 1678 3084 1418 2786 
Q 1159 2488 1159 1978 
L 1159 0 
L 581 0 
L 581 3500 
L 1159 3500 
L 1159 2956 
Q 1356 3278 1631 3431 
Q 1906 3584 2284 3584 
Q 2666 3584 2933 3390 
Q 3200 3197 3328 2828 
z
" transform="scale(0.015625)"/>
     </defs>
     <use xlink:href="#DejaVuSans-42"/>
     <use xlink:href="#DejaVuSans-69" x="68.603516"/>
     <use xlink:href="#DejaVuSans-61" x="96.386719"/>
     <use xlink:href="#DejaVuSans-73" x="157.666016"/>
     <use xlink:href="#DejaVuSans-20" x="209.765625"/>
     <use xlink:href="#DejaVuSans-6f" x="241.552734"/>
     <use xlink:href="#DejaVuSans-76" x="302.734375"/>
     <use xlink:href="#DejaVuSans-65" x="361.914062"/>
     <use xlink:href="#DejaVuSans-72" x="423.4375"/>
     <use xlink:href="#DejaVuSans-20" x="464.550781"/>
     <use xlink:href="#DejaVuSans-74" x="496.337891"/>
     <use xlink:href="#DejaVuSans-69" x="535.546875"/>
     <use xlink:href="#DejaVuSans-6d" x="563.330078"/>
     <use xlink:href="#DejaVuSans-65" x="660.742188"/>
    </g>
   </g>
   <g id="legend_1">
    <g id="line2d_15">
     <g>
      <use xlink:href="#m8b4c09643e" x="542.93125" y="369.900312" style="fill: #008000; stroke: #008000"/>
     </g>
    </g>
    <g id="text_16">
     <!-- Perceived Hand -->
     <g transform="translate(560.93125 373.400312) scale(0.1 -0.1)">
      <defs>
       <path id="DejaVuSans-50" d="M 1259 4147 
L 1259 2394 
L 2053 2394 
Q 2494 2394 2734 2622 
Q 2975 2850 2975 3272 
Q 2975 3691 2734 3919 
Q 2494 4147 2053 4147 
L 1259 4147 
z
M 628 4666 
L 2053 4666 
Q 2838 4666 3239 4311 
Q 3641 3956 3641 3272 
Q 3641 2581 3239 2228 
Q 2838 1875 2053 1875 
L 1259 1875 
L 1259 0 
L 628 0 
L 628 4666 
z
" transform="scale(0.015625)"/>
       <path id="DejaVuSans-63" d="M 3122 3366 
L 3122 2828 
Q 2878 2963 2633 3030 
Q 2388 3097 2138 3097 
Q 1578 3097 1268 2742 
Q 959 2388 959 1747 
Q 959 1106 1268 751 
Q 1578 397 2138 397 
Q 2388 397 2633 464 
Q 2878 531 3122 666 
L 3122 134 
Q 2881 22 2623 -34 
Q 2366 -91 2075 -91 
Q 1284 -91 818 406 
Q 353 903 353 1747 
Q 353 2603 823 3093 
Q 1294 3584 2113 3584 
Q 2378 3584 2631 3529 
Q 2884 3475 3122 3366 
z
" transform="scale(0.015625)"/>
       <path id="DejaVuSans-64" d="M 2906 2969 
L 2906 4863 
L 3481 4863 
L 3481 0 
L 2906 0 
L 2906 525 
Q 2725 213 2448 61 
Q 2172 -91 1784 -91 
Q 1150 -91 751 415 
Q 353 922 353 1747 
Q 353 2572 751 3078 
Q 1150 3584 1784 3584 
Q 2172 3584 2448 3432 
Q 2725 3281 2906 2969 
z
M 947 1747 
Q 947 1113 1208 752 
Q 1469 391 1925 391 
Q 2381 391 2643 752 
Q 2906 1113 2906 1747 
Q 2906 2381 2643 2742 
Q 2381 3103 1925 3103 
Q 1469 3103 1208 2742 
Q 947 2381 947 1747 
z
" transform="scale(0.015625)"/>
       <path id="DejaVuSans-48" d="M 628 4666 
L 1259 4666 
L 1259 2753 
L 3553 2753 
L 3553 4666 
L 4184 4666 
L 4184 0 
L 3553 0 
L 3553 2222 
L 1259 2222 
L 1259 0 
L 628 0 
L 628 4666 
z
" transform="scale(0.015625)"/>
       <path id="DejaVuSans-6e" d="M 3513 2113 
L 3513 0 
L 2938 0 
L 2938 2094 
Q 2938 2591 2744 2837 
Q 2550 3084 2163 3084 
Q 1697 3084 1428 2787 
Q 1159 2491 1159 1978 
L 1159 0 
L 581 0 
L 581 3500 
L 1159 3500 
L 1159 2956 
Q 1366 3272 1645 3428 
Q 1925 3584 2291 3584 
Q 2894 3584 3203 3211 
Q 3513 2838 3513 2113 
z
" transform="scale(0.015625)"/>
      </defs>
      <use xlink:href="#DejaVuSans-50"/>
      <use xlink:href="#DejaVuSans-65" x="56.677734"/>
      <use xlink:href="#DejaVuSans-72" x="118.201172"/>
      <use xlink:href="#DejaVuSans-63" x="157.064453"/>
      <use xlink:href="#DejaVuSans-65" x="212.044922"/>
      <use xlink:href="#DejaVuSans-69" x="273.568359"/>
      <use xlink:href="#DejaVuSans-76" x="301.351562"/>
      <use xlink:href="#DejaVuSans-65" x="360.53125"/>
      <use xlink:href="#DejaVuSans-64" x="422.054688"/>
      <use xlink:href="#DejaVuSans-20" x="485.53125"/>
      <use xlink:href="#DejaVuSans-48" x="517.318359"/>
      <use xlink:href="#DejaVuSans-61" x="592.513672"/>
      <use xlink:href="#DejaVuSans-6e" x="653.792969"/>
      <use xlink:href="#DejaVuSans-64" x="717.171875"/>
     </g>
    </g>
   </g>
  </g>
 </g>
 <defs>
  <clipPath id="p3c53ca159d">
   <rect x="90" y="51.84" width="558" height="332.64"/>
  </clipPath>
 </defs>
</svg>
